<mxfile host="app.diagrams.net" modified="2023-04-13T00:58:17.678Z" agent="Mozilla/5.0 (Macintosh; Intel Mac OS X 10_15_7) AppleWebKit/605.1.15 (KHTML, like Gecko) Version/16.2 Safari/605.1.15" version="21.1.2" etag="bYcFz8gM0V4ZvzfMm5MU" type="github">
  <diagram name="Page-1" id="wliBTBgtmaerxLFT2JfO">
    <mxGraphModel>
      <root>
        <mxCell id="0" />
        <mxCell id="1" parent="0" />
      </root>
    </mxGraphModel>
  </diagram>
</mxfile>
